{
	"accessors" : 
	[
		{
			"bufferView" : 2,
			"byteOffset" : 0,
			"componentType" : 5126,
			"count" : 2760,
			"max" : 
			[
				1,
				0.835527777671814,
				0.7226724624633789,
				1
			],
			"min" : 
			[
				0.006584956776350737,
				0.006584956776350737,
				0.006584956776350737,
				1
			],
			"name" : "accessor_color_m0-PolyPaper23_-155030",
			"type" : "VEC4"
		},
		{
			"bufferView" : 2,
			"byteOffset" : 44160,
			"componentType" : 5126,
			"count" : 768,
			"max" : 
			[
				0.6800203323364258,
				0.6800203323364258,
				0.6800203323364258,
				0.2509804
			],
			"min" : 
			[
				0.6800203323364258,
				0.6800203323364258,
				0.6800203323364258,
				0.2509804
			],
			"name" : "accessor_color_m1-PolyGlass24_-155064",
			"type" : "VEC4"
		},
		{
			"bufferView" : 2,
			"byteOffset" : 56448,
			"componentType" : 5126,
			"count" : 504,
			"max" : 
			[
				1,
				1,
				1,
				1
			],
			"min" : 
			[
				1,
				1,
				1,
				1
			],
			"name" : "accessor_color_m2-PolyGem25_-154966",
			"type" : "VEC4"
		},
		{
			"bufferView" : 0,
			"byteOffset" : 0,
			"componentType" : 5123,
			"count" : 4812,
			"max" : 
			[
				2759
			],
			"min" : 
			[
				0
			],
			"name" : "accessor_indices_0_m0-PolyPaper23_-155030",
			"type" : "SCALAR"
		},
		{
			"bufferView" : 0,
			"byteOffset" : 9624,
			"componentType" : 5123,
			"count" : 1176,
			"max" : 
			[
				767
			],
			"min" : 
			[
				0
			],
			"name" : "accessor_indices_0_m1-PolyGlass24_-155064",
			"type" : "SCALAR"
		},
		{
			"bufferView" : 0,
			"byteOffset" : 11976,
			"componentType" : 5123,
			"count" : 924,
			"max" : 
			[
				503
			],
			"min" : 
			[
				0
			],
			"name" : "accessor_indices_0_m2-PolyGem25_-154966",
			"type" : "SCALAR"
		},
		{
			"bufferView" : 1,
			"byteOffset" : 33120,
			"componentType" : 5126,
			"count" : 2760,
			"max" : 
			[
				1,
				1,
				1
			],
			"min" : 
			[
				-1,
				-1,
				-1
			],
			"name" : "accessor_normal_m0-PolyPaper23_-155030",
			"type" : "VEC3"
		},
		{
			"bufferView" : 1,
			"byteOffset" : 75456,
			"componentType" : 5126,
			"count" : 768,
			"max" : 
			[
				0.9897974,
				1,
				0.9871384
			],
			"min" : 
			[
				-0.9897974,
				-1,
				-0.9871383
			],
			"name" : "accessor_normal_m1-PolyGlass24_-155064",
			"type" : "VEC3"
		},
		{
			"bufferView" : 1,
			"byteOffset" : 90720,
			"componentType" : 5126,
			"count" : 504,
			"max" : 
			[
				0.9894834,
				1,
				0.9875003
			],
			"min" : 
			[
				-0.9894834,
				-1,
				-0.9875005
			],
			"name" : "accessor_normal_m2-PolyGem25_-154966",
			"type" : "VEC3"
		},
		{
			"bufferView" : 1,
			"byteOffset" : 0,
			"componentType" : 5126,
			"count" : 2760,
			"max" : 
			[
				0.3850164,
				1.986877,
				1.484987
			],
			"min" : 
			[
				-2.165029,
				-0.1660703,
				-2.754963
			],
			"name" : "accessor_position_m0-PolyPaper23_-155030",
			"type" : "VEC3"
		},
		{
			"bufferView" : 1,
			"byteOffset" : 66240,
			"componentType" : 5126,
			"count" : 768,
			"max" : 
			[
				-0.1150705,
				1.95611,
				-0.8630239
			],
			"min" : 
			[
				-0.4400061,
				0.729986,
				-1.681368
			],
			"name" : "accessor_position_m1-PolyGlass24_-155064",
			"type" : "VEC3"
		},
		{
			"bufferView" : 1,
			"byteOffset" : 84672,
			"componentType" : 5126,
			"count" : 504,
			"max" : 
			[
				-0.1343512,
				1.645959,
				-0.8653259
			],
			"min" : 
			[
				-0.4400195,
				0.7199882,
				-1.681307
			],
			"name" : "accessor_position_m2-PolyGem25_-154966",
			"type" : "VEC3"
		}
	],
	"asset" : 
	{
		"copyright" : "Unknown",
		"generator" : "glTF 1-to-2 Upgrader for Google Blocks",
		"version" : "2.0"
	},
	"bufferViews" : 
	[
		{
			"buffer" : 0,
			"byteLength" : 13824,
			"byteOffset" : 0,
			"name" : "ushortBufferView",
			"target" : 34963
		},
		{
			"buffer" : 0,
			"byteLength" : 96768,
			"byteOffset" : 13824,
			"byteStride" : 12,
			"name" : "vec3BufferView",
			"target" : 34962
		},
		{
			"buffer" : 0,
			"byteLength" : 64512,
			"byteOffset" : 110592,
			"byteStride" : 16,
			"name" : "vec4BufferView",
			"target" : 34962
		}
	],
	"buffers" : 
	[
		{
			"byteLength" : 175104,
			"name" : "fancybar",
			"uri" : "fancybar.bin"
		}
	],
	"materials" : 
	[
		{
			"alphaMode" : "OPAQUE",
			"doubleSided" : false,
			"name" : "BlocksPaper",
			"pbrMetallicRoughness" : 
			{
				"baseColorFactor" : 
				[
					1,
					1,
					1,
					1
				],
				"metallicFactor" : 0,
				"roughnessFactor" : 0.6
			}
		},
		{
			"alphaMode" : "BLEND",
			"doubleSided" : false,
			"name" : "BlocksGlass",
			"pbrMetallicRoughness" : 
			{
				"baseColorFactor" : 
				[
					0.2,
					0.2,
					1,
					0.3
				],
				"metallicFactor" : 1,
				"roughnessFactor" : 0.4
			}
		},
		{
			"alphaMode" : "OPAQUE",
			"doubleSided" : true,
			"name" : "BlocksGem",
			"pbrMetallicRoughness" : 
			{
				"baseColorFactor" : 
				[
					1,
					0.4,
					1,
					1
				],
				"metallicFactor" : 0,
				"roughnessFactor" : 0.1
			}
		}
	],
	"meshes" : 
	[
		{
			"name" : "mesh_m0-PolyPaper23_-155030",
			"primitives" : 
			[
				{
					"attributes" : 
					{
						"COLOR_0" : 0,
						"NORMAL" : 6,
						"POSITION" : 9
					},
					"indices" : 3,
					"material" : 0,
					"mode" : 4
				}
			]
		},
		{
			"name" : "mesh_m1-PolyGlass24_-155064",
			"primitives" : 
			[
				{
					"attributes" : 
					{
						"COLOR_0" : 1,
						"NORMAL" : 7,
						"POSITION" : 10
					},
					"indices" : 4,
					"material" : 1,
					"mode" : 4
				}
			]
		},
		{
			"name" : "mesh_m2-PolyGem25_-154966",
			"primitives" : 
			[
				{
					"attributes" : 
					{
						"COLOR_0" : 2,
						"NORMAL" : 8,
						"POSITION" : 11
					},
					"indices" : 5,
					"material" : 2,
					"mode" : 4
				}
			]
		}
	],
	"nodes" : 
	[
		{
			"matrix" : 
			[
				1,
				0,
				0,
				0,
				0,
				1,
				0,
				0,
				0,
				0,
				1,
				0,
				0,
				0,
				0,
				1
			],
			"mesh" : 2,
			"name" : "node_MeshObject1026924032-PolyGem25"
		},
		{
			"matrix" : 
			[
				1,
				0,
				0,
				0,
				0,
				1,
				0,
				0,
				0,
				0,
				1,
				0,
				0,
				0,
				0,
				1
			],
			"mesh" : 1,
			"name" : "node_MeshObject1159829760-PolyGlass24"
		},
		{
			"matrix" : 
			[
				1,
				0,
				0,
				0,
				0,
				1,
				0,
				0,
				0,
				0,
				1,
				0,
				0,
				0,
				0,
				1
			],
			"mesh" : 0,
			"name" : "node_MeshObject362997184-PolyPaper23"
		}
	],
	"scene" : 0,
	"scenes" : 
	[
		{
			"extras" : {},
			"name" : "defaultScene",
			"nodes" : 
			[
				2,
				1,
				0
			]
		}
	]
}